PathFileType	4	(X/Y/Z)	/Users/itak/Documents/Research/Walk-IL/dataset/trc/00446_00167.trc
DataRate	CameraRate	NumFrames	NumMarkers	Units	OrigDataRate	OrigDataStartFrame	OrigNumFrames
100.000000	100.000000	4	53	mm	100.000000	178	477
Frame#	Time	RPSI			LPSI			L3			STRN			T10			C7			CLAV			RBAK			LBAK			LSHO			LUPA			LAEL			LAOL			LWTS			LWPS			LFRA			LIFD			LHPS			LHTS			RSHO			RUPA			RAEL			RAOL			RWTS			RWPS			RFRA			RIFD			RHTS			RHPS			RBHD			LFHD			RFHD			LBHD			LHIP			RHIP			RASI			LASI			LKNE			LTHI			LANK			LTIP			LTOE			LMT1			LMT5			LHEE			RKNE			RTHI			RANK			RTIP			RTOE			RMT1			RMT5			RHEE			
		X1	Y1	Z1	X2	Y2	Z2	X3	Y3	Z3	X4	Y4	Z4	X5	Y5	Z5	X6	Y6	Z6	X7	Y7	Z7	X8	Y8	Z8	X9	Y9	Z9	X10	Y10	Z10	X11	Y11	Z11	X12	Y12	Z12	X13	Y13	Z13	X14	Y14	Z14	X15	Y15	Z15	X16	Y16	Z16	X17	Y17	Z17	X18	Y18	Z18	X19	Y19	Z19	X20	Y20	Z20	X21	Y21	Z21	X22	Y22	Z22	X23	Y23	Z23	X24	Y24	Z24	X25	Y25	Z25	X26	Y26	Z26	X27	Y27	Z27	X28	Y28	Z28	X29	Y29	Z29	X30	Y30	Z30	X31	Y31	Z31	X32	Y32	Z32	X33	Y33	Z33	X34	Y34	Z34	X35	Y35	Z35	X36	Y36	Z36	X37	Y37	Z37	X38	Y38	Z38	X39	Y39	Z39	X40	Y40	Z40	X41	Y41	Z41	X42	Y42	Z42	X43	Y43	Z43	X44	Y44	Z44	X45	Y45	Z45	X46	Y46	Z46	X47	Y47	Z47	X48	Y48	Z48	X49	Y49	Z49	X50	Y50	Z50	X51	Y51	Z51	X52	Y52	Z52	X53	Y53	Z53	

179	1.78	-1439.293701171875	931.0858154296875	-540.5980224609375	-1362.401489257812	942.049072265625	-659.8583984375	-1385.429809570312	1036.935180664062	-581.1241455078125	-1122.928466796875	1191.809448242188	-430.8803100585938	-1376.006469726562	1161.846313476562	-585.4268188476562	-1284.98681640625	1417.086059570312	-524.0971069335938	-1136.06689453125	1309.764526367188	-446.0718688964844	-1404.187377929688	1312.94091796875	-489.0933227539062	-1267.608276367188	1371.984619140625	-627.2523803710938	-1137.09228515625	1379.171020507812	-643.0994262695312	-1102.806030273438	1265.447631835938	-740.695068359375	-1071.986938476562	1050.516357421875	-772.0953979492188	-1174.173095703125	1035.739135742188	-761.5250854492188	-1019.984436035156	856.8552856445312	-676.0068969726562	-1025.901489257812	833.1499633789062	-746.8515625	-1044.134765625	964.8946533203125	-764.41796875	-1029.0029296875	686.9998779296875	-657.9972534179688	-1025.16552734375	750.7138671875	-731.4617309570312	-1006.338073730469	765.0756225585938	-663.3589477539062	-1317.656372070312	1384.340209960938	-353.214111328125	-1386.349487304688	1334.843627929688	-308.6020202636719	-1499.436279296875	1073.843872070312	-275.7093811035156	-1526.547607421875	1072.020874023438	-338.2900390625	-1466.044189453125	847.7867431640625	-276.5263366699219	-1552.376831054688	860.4818115234375	-267.8607177734375	-1520.965209960938	1018.535827636719	-270.315673828125	-1519.514404296875	697.5693969726562	-278.4276428222656	-1493.364501953125	750.4913330078125	-263.961669921875	-1565.73779296875	772.7985229492188	-265.4159545898438	-1249.9501953125	1597.377075195312	-408.8121643066406	-1058.5869140625	1611.963745117188	-487.71875	-1118.220458984375	1616.181762695312	-370.8485107421875	-1183.747680664062	1595.825927734375	-574.1654663085938	-1196.002197265625	826.0570068359375	-698.1871337890625	-1408.170166015625	822.0321655273438	-359.3110961914062	-1291.417846679688	860.2003784179688	-368.8070068359375	-1149.019897460938	852.4038696289062	-579.1696166992188	-1282.93310546875	405.5276184082031	-671.5831298828125	-1219.645751953125	552.4384765625	-669.3887329101562	-1477.780395507812	33.5996208190918	-764.873291015625	-1339.416870117188	260.1720275878906	-706.8846435546875	-1320.790649414062	50.02104187011719	-588.9263305664062	-1397.543334960938	50.58496856689453	-598.7929077148438	-1343.37646484375	48.77454376220703	-699.3734130859375	-1551.407104492188	35.38777160644531	-747.5198364257812	-1306.245849609375	452.9020080566406	-297.0713195800781	-1348.49365234375	701.2938232421875	-312.8790283203125	-1585.254760742188	131.2550659179688	-429.0328674316406	-1395.28271484375	342.123779296875	-322.0081481933594	-1405.197387695312	43.80315780639648	-390.840087890625	-1431.39892578125	65.61685943603516	-445.7820129394531	-1500.800048828125	55.71819686889648	-364.6208801269531	-1609.059326171875	170.7306060791016	-496.3508605957031	
180	1.79	-1435.09814453125	927.1848754882812	-537.14892578125	-1359.052490234375	938.8766479492188	-656.9300537109375	-1380.720825195312	1034.724243164062	-578.2390747070312	-1116.55126953125	1187.40673828125	-426.9149780273438	-1369.825439453125	1159.814086914062	-582.3921508789062	-1275.885620117188	1413.870483398438	-520.5188598632812	-1128.608154296875	1305.516845703125	-441.874755859375	-1396.183471679688	1310.991088867188	-486.4298095703125	-1258.521484375	1368.96044921875	-623.6723022460938	-1128.10009765625	1374.881958007812	-638.7379760742188	-1093.609619140625	1261.597534179688	-736.4896240234375	-1060.043701171875	1047.706665039062	-768.6856079101562	-1162.01953125	1030.9599609375	-758.4314575195312	-1003.202514648438	857.6161499023438	-668.3388671875	-1008.028503417969	832.0904541015625	-738.6244506835938	-1029.875	962.9346923828125	-759.3234252929688	-1008.991149902344	688.0169677734375	-646.26416015625	-1005.673645019531	749.9776000976562	-721.1281127929688	-987.4297485351562	766.4093627929688	-653.2586669921875	-1309.86962890625	1381.313598632812	-349.8266296386719	-1379.523559570312	1332.8662109375	-306.1587524414062	-1498.517333984375	1074.68994140625	-275.7065124511719	-1524.586791992188	1074.104858398438	-338.7598876953125	-1473.331787109375	847.5021362304688	-277.3438415527344	-1559.27197265625	863.3873901367188	-270.0646362304688	-1522.0087890625	1020.146057128906	-270.9710693359375	-1532.422485351562	699.4173583984375	-281.2019653320312	-1504.541137695312	751.2095947265625	-265.9374084472656	-1575.952758789062	776.2415161132812	-268.3803100585938	-1241.8603515625	1593.282836914062	-405.5525207519531	-1050.343627929688	1608.016357421875	-483.876708984375	-1110.267211914062	1612.40283203125	-367.2083740234375	-1175.153686523438	1591.45166015625	-570.671875	-1192.254028320312	823.6976318359375	-696.0582885742188	-1401.187377929688	819.19873046875	-355.2962951660156	-1285.326171875	858.3295288085938	-366.4004211425781	-1144.735961914062	850.4337158203125	-577.61083984375	-1276.554809570312	402.4408264160156	-668.458251953125	-1213.591186523438	550.1065063476562	-666.2586669921875	-1477.571533203125	34.44027328491211	-764.7611083984375	-1335.571533203125	258.1168212890625	-705.1829223632812	-1320.5908203125	48.80536651611328	-588.6148071289062	-1397.134765625	50.37828826904297	-598.7645874023438	-1342.756958007812	48.10369110107422	-699.4118041992188	-1551.1943359375	37.12693405151367	-747.5487060546875	-1290.85205078125	453.1764526367188	-289.953125	-1338.38330078125	700.1314086914062	-308.4246520996094	-1577.779418945312	140.7041625976562	-423.9260864257812	-1381.412475585938	344.4184265136719	-315.1019897460938	-1401.670043945312	44.04531860351562	-387.5196838378906	-1426.707397460938	68.69630432128906	-442.2456665039062	-1496.276123046875	59.93506240844727	-361.2447509765625	-1600.6201171875	182.0914916992188	-490.4721069335938	
181	1.8	-1430.9912109375	923.072998046875	-533.3370971679688	-1355.90478515625	935.4010620117188	-653.7083740234375	-1376.14306640625	1032.404418945312	-575.028564453125	-1110.030151367188	1182.595825195312	-422.8755798339844	-1363.672119140625	1157.696899414062	-579.0543212890625	-1266.527099609375	1410.401123046875	-516.690673828125	-1120.89013671875	1300.876708984375	-437.5511474609375	-1387.944702148438	1308.931396484375	-483.4204711914062	-1249.2734375	1365.7021484375	-619.8717651367188	-1118.960083007812	1370.2685546875	-634.1983642578125	-1084.224365234375	1257.482177734375	-732.148681640625	-1047.508178710938	1044.90234375	-765.142333984375	-1149.193481445312	1025.835815429688	-755.3228759765625	-985.4615478515625	859.1560668945312	-660.0505981445312	-988.9495849609375	831.7078857421875	-729.66015625	-1014.809326171875	961.2319946289062	-753.8515014648438	-987.337646484375	690.006591796875	-633.5889282226562	-984.636474609375	750.0953369140625	-709.9172973632812	-967.2210083007812	768.762939453125	-642.3455810546875	-1301.62841796875	1378.030883789062	-346.1481018066406	-1372.226928710938	1330.735717773438	-303.3952331542969	-1497.443725585938	1075.744384765625	-275.5565795898438	-1522.461547851562	1076.438110351562	-339.0313110351562	-1480.783935546875	847.7152709960938	-278.3154296875	-1566.180908203125	866.85546875	-272.3503723144531	-1522.936767578125	1022.072387695312	-271.5045166015625	-1545.510375976562	702.0521850585938	-284.3889770507812	-1515.904052734375	752.5938720703125	-268.2424926757812	-1586.19189453125	780.3638916015625	-271.6119384765625	-1233.66845703125	1588.7978515625	-402.2135009765625	-1041.968627929688	1603.85009765625	-479.9104919433594	-1102.27001953125	1608.373779296875	-363.4679870605469	-1166.415771484375	1586.699340820312	-567.0726928710938	-1188.694213867188	821.1766967773438	-693.7286376953125	-1394.202026367188	816.2449340820312	-351.0086364746094	-1279.21728515625	856.3086547851562	-363.81640625	-1140.542358398438	848.3489990234375	-575.9182739257812	-1269.657470703125	399.1259155273438	-665.1991577148438	-1207.170776367188	547.6048583984375	-663.0631713867188	-1477.301391601562	35.49684906005859	-764.677490234375	-1331.35595703125	255.9850311279297	-703.44970703125	-1320.421875	47.79016494750977	-588.338623046875	-1396.738403320312	50.28366470336914	-598.79833984375	-1342.187744140625	47.47154998779297	-699.490234375	-1550.984619140625	39.3267822265625	-747.6495361328125	-1275.303833007812	453.5341796875	-283.0105590820312	-1328.281127929688	698.8787231445312	-303.8641662597656	-1569.427368164062	150.1862945556641	-418.4313049316406	-1367.262817382812	346.7544555664062	-308.3516235351562	-1396.954711914062	45.011474609375	-382.9377136230469	-1420.945068359375	72.45158386230469	-437.6963500976562	-1490.699584960938	65.10161590576172	-356.8911743164062	-1591.474365234375	192.8597412109375	-484.4490051269531	
182	1.81	-1426.95849609375	918.7977294921875	-529.1487426757812	-1352.937744140625	931.680419921875	-650.174560546875	-1371.699340820312	1029.98193359375	-571.5044555664062	-1103.354370117188	1177.356201171875	-418.7767333984375	-1357.499267578125	1155.466430664062	-575.3865356445312	-1256.926879882812	1406.67822265625	-512.6029663085938	-1112.901245117188	1295.821044921875	-433.1044311523438	-1379.47265625	1306.751586914062	-480.0484008789062	-1239.876586914062	1362.207641601562	-615.8536376953125	-1109.678344726562	1365.352661132812	-629.4859619140625	-1074.630981445312	1253.131958007812	-727.6727905273438	-1034.351196289062	1042.171264648438	-761.4187622070312	-1135.61083984375	1020.395263671875	-752.1787719726562	-966.847900390625	861.6298217773438	-651.1009521484375	-968.706787109375	832.2057495117188	-719.9056396484375	-998.9367065429688	959.9048461914062	-747.9328002929688	-964.0029296875	693.2139282226562	-620.0008544921875	-962.0731811523438	751.317626953125	-697.8150634765625	-945.7921752929688	772.3427734375	-630.62158203125	-1292.913208007812	1374.48779296875	-342.1719970703125	-1364.4365234375	1328.4541015625	-300.2828979492188	-1496.17919921875	1077.039184570312	-275.2111206054688	-1520.151733398438	1079.064575195312	-339.0484619140625	-1488.3486328125	848.5026245117188	-279.4112243652344	-1573.043579101562	870.9434814453125	-274.6556091308594	-1523.705932617188	1024.358764648438	-271.8596801757812	-1558.672607421875	705.554931640625	-287.9595642089844	-1527.367797851562	754.7291259765625	-270.8450317382812	-1596.364135742188	785.2235717773438	-275.0583190917969	-1225.37841796875	1583.914672851562	-398.7890930175781	-1033.481201171875	1599.481201171875	-475.8148803710938	-1094.244750976562	1604.109497070312	-359.6249084472656	-1157.531372070312	1581.565551757812	-563.3615112304688	-1185.294677734375	818.5217895507812	-691.18701171875	-1387.248779296875	813.1625366210938	-346.4512939453125	-1273.117797851562	854.118408203125	-361.0232543945312	-1136.434326171875	846.1343383789062	-574.052001953125	-1262.307739257812	395.6343078613281	-661.91357421875	-1200.427856445312	544.9561767578125	-659.9327392578125	-1476.945922851562	36.775390625	-764.6510620117188	-1326.795043945312	253.8266754150391	-701.7393188476562	-1320.275390625	46.99038314819336	-588.1287841796875	-1396.361328125	50.30387496948242	-598.9072875976562	-1341.669311523438	46.89250946044922	-699.6405029296875	-1550.734741210938	41.99609375	-747.8416137695312	-1259.62451171875	454.0288391113281	-276.1893310546875	-1318.244384765625	697.5343627929688	-299.1668090820312	-1560.139770507812	159.5443420410156	-412.5600280761719	-1352.8662109375	349.1711120605469	-301.7291870117188	-1390.926635742188	46.87819671630859	-377.0093688964844	-1414.006103515625	76.78055572509766	-432.072998046875	-1483.92626953125	71.17121887207031	-351.4549560546875	-1581.56494140625	202.8594055175781	-478.3215026855469	
